#Comment line ignore any data following # character 
#Hierarchical Translation and Rotation (.htr) file 
[Header]	
#Header keywords are followed by a single value 
FileType HTR		#Single word string
DataType HTRS		#Translation followed by rotation and scale data
FileVersion 1		#integer
NumSegments 84		#integer
NumFrames 2		#integer
DataFrameRate 30		#integer, data frame rate in this file
EulerRotationOrder ZYX
CalibrationUnits mm
RotationUnits Degrees
GlobalAxisofGravity Y
BoneLengthAxis Y
ScaleFactor 1.00
[SegmentNames&Hierarchy]
#CHILD	PARENT
MASTER GLOBAL
root MASTER
chest root
L_mid_tent01 root
R_mid_tent01 root
spine01 root
Bip01_Neck chest
L_humerus chest
R_humerus chest
weapon_bone chest
Bip01_Head Bip01_Neck
eye_left_bone Bip01_Head
eye_right_bone Bip01_Head
L_forearm L_humerus
L_front_hand L_forearm
L_weapon_bone L_forearm
L_front_hand01_01 L_front_hand
L_front_hand02_01 L_front_hand
L_front_hand03_01 L_front_hand
L_front_hand01_02 L_front_hand01_01
L_front_hand02_02 L_front_hand02_01
L_front_hand03_02 L_front_hand03_01
R_forearm R_humerus
R_front_hand R_forearm
R_weapon_bone R_forearm
R_front_hand01_01 R_front_hand
R_front_hand02_01 R_front_hand
R_front_hand03_01 R_front_hand
R_front_hand01_02 R_front_hand01_01
R_front_hand02_02 R_front_hand02_01
R_front_hand03_02 R_front_hand03_01
null_rope01_connect L_mid_tent01
Rope1_Seg01 null_rope01_connect
Rope1_Seg02 Rope1_Seg01
Rope1_Seg03 Rope1_Seg02
Rope1_Seg04 Rope1_Seg03
Rope1_Seg05 Rope1_Seg04
Rope1_Seg06 Rope1_Seg05
Rope1_Seg07 Rope1_Seg06
Rope1_Seg09 Rope1_Seg07
L_mid_hand01 Rope1_Seg09
L_mid_hand02 Rope1_Seg09
L_mid_hand03 Rope1_Seg09
null_rope02_connect R_mid_tent01
Rope2_Seg01 null_rope02_connect
Rope2_Seg02 Rope2_Seg01
Rope2_Seg03 Rope2_Seg02
Rope2_Seg04 Rope2_Seg03
Rope2_Seg05 Rope2_Seg04
Rope2_Seg06 Rope2_Seg05
Rope2_Seg07 Rope2_Seg06
Rope2_Seg09 Rope2_Seg07
R_mid_hand01 Rope2_Seg09
R_mid_hand02 Rope2_Seg09
R_mid_hand03 Rope2_Seg09
spine02 spine01
spine03 spine02
pelvis spine03
null_rope03_connect pelvis
null_rope04_connect pelvis
Rope3_Seg01 null_rope03_connect
Rope3_Seg02 Rope3_Seg01
Rope3_Seg03 Rope3_Seg02
Rope3_Seg04 Rope3_Seg03
Rope3_Seg05 Rope3_Seg04
Rope3_Seg06 Rope3_Seg05
Rope3_Seg07 Rope3_Seg06
Rope3_Seg08 Rope3_Seg07
Rope3_Seg09 Rope3_Seg08
R_rear_hand01 Rope3_Seg09
R_rear_hand02 Rope3_Seg09
R_rear_hand03 Rope3_Seg09
Rope4_Seg01 null_rope04_connect
Rope4_Seg02 Rope4_Seg01
Rope4_Seg03 Rope4_Seg02
Rope4_Seg04 Rope4_Seg03
Rope4_Seg05 Rope4_Seg04
Rope4_Seg06 Rope4_Seg05
Rope4_Seg07 Rope4_Seg06
Rope4_Seg08 Rope4_Seg07
Rope4_Seg09 Rope4_Seg08
L_rear_hand01 Rope4_Seg09
L_rear_hand02 Rope4_Seg09
L_rear_hand03 Rope4_Seg09
[BasePosition]
#SegmentName Tx, Ty, Tz, Rx, Ry, Rz, BoneLength
MASTER 0.000000 0.000000 0.000000 -90.000000 0.000000 0.000000 10.000000 
root 0.000000 0.000000 0.000000 0.000000 0.000000 0.000000 10.000000 
chest 0.000000 0.000000 0.000000 0.000000 0.000000 0.000000 10.000000 
L_mid_tent01 0.000000 0.000000 0.000000 0.000000 0.000000 0.000000 10.000000 
R_mid_tent01 0.000000 0.000000 0.000000 0.000000 0.000000 0.000000 10.000000 
spine01 0.000000 0.000000 0.000000 0.000000 0.000000 0.000000 10.000000 
Bip01_Neck 0.000000 0.000000 0.000000 0.000000 0.000000 0.000000 10.000000 
L_humerus 0.000000 0.000000 0.000000 0.000000 0.000000 0.000000 10.000000 
R_humerus 0.000000 0.000000 0.000000 0.000000 0.000000 0.000000 10.000000 
weapon_bone 0.000000 0.000000 0.000000 0.000000 0.000000 0.000000 10.000000 
Bip01_Head 0.000000 0.000000 0.000000 0.000000 0.000000 0.000000 10.000000 
eye_left_bone 0.000000 0.000000 0.000000 0.000000 0.000000 0.000000 10.000000 
eye_right_bone 0.000000 0.000000 0.000000 0.000000 0.000000 0.000000 10.000000 
L_forearm 0.000000 0.000000 0.000000 0.000000 0.000000 0.000000 10.000000 
L_front_hand 0.000000 0.000000 0.000000 0.000000 0.000000 0.000000 10.000000 
L_weapon_bone 0.000000 0.000000 0.000000 0.000000 0.000000 0.000000 10.000000 
L_front_hand01_01 0.000000 0.000000 0.000000 0.000000 0.000000 0.000000 10.000000 
L_front_hand02_01 0.000000 0.000000 0.000000 0.000000 0.000000 0.000000 10.000000 
L_front_hand03_01 0.000000 0.000000 0.000000 0.000000 0.000000 0.000000 10.000000 
L_front_hand01_02 0.000000 0.000000 0.000000 0.000000 0.000000 0.000000 10.000000 
L_front_hand02_02 0.000000 0.000000 0.000000 0.000000 0.000000 0.000000 10.000000 
L_front_hand03_02 0.000000 0.000000 0.000000 0.000000 0.000000 0.000000 10.000000 
R_forearm 0.000000 0.000000 0.000000 0.000000 0.000000 0.000000 10.000000 
R_front_hand 0.000000 0.000000 0.000000 0.000000 0.000000 0.000000 10.000000 
R_weapon_bone 0.000000 0.000000 0.000000 0.000000 0.000000 0.000000 10.000000 
R_front_hand01_01 0.000000 0.000000 0.000000 0.000000 0.000000 0.000000 10.000000 
R_front_hand02_01 0.000000 0.000000 0.000000 0.000000 0.000000 0.000000 10.000000 
R_front_hand03_01 0.000000 0.000000 0.000000 0.000000 0.000000 0.000000 10.000000 
R_front_hand01_02 0.000000 0.000000 0.000000 0.000000 0.000000 0.000000 10.000000 
R_front_hand02_02 0.000000 0.000000 0.000000 0.000000 0.000000 0.000000 10.000000 
R_front_hand03_02 0.000000 0.000000 0.000000 0.000000 0.000000 0.000000 10.000000 
null_rope01_connect 0.000000 0.000000 0.000000 0.000000 0.000000 0.000000 10.000000 
Rope1_Seg01 0.000000 0.000000 0.000000 0.000000 0.000000 0.000000 10.000000 
Rope1_Seg02 0.000000 0.000000 0.000000 0.000000 0.000000 0.000000 10.000000 
Rope1_Seg03 0.000000 0.000000 0.000000 0.000000 0.000000 0.000000 10.000000 
Rope1_Seg04 0.000000 0.000000 0.000000 0.000000 0.000000 0.000000 10.000000 
Rope1_Seg05 0.000000 0.000000 0.000000 0.000000 0.000000 0.000000 10.000000 
Rope1_Seg06 0.000000 0.000000 0.000000 0.000000 0.000000 0.000000 10.000000 
Rope1_Seg07 0.000000 0.000000 0.000000 0.000000 0.000000 0.000000 10.000000 
Rope1_Seg09 0.000000 0.000000 0.000000 0.000000 0.000000 0.000000 10.000000 
L_mid_hand01 0.000000 0.000000 0.000000 0.000000 0.000000 0.000000 10.000000 
L_mid_hand02 0.000000 0.000000 0.000000 0.000000 0.000000 0.000000 10.000000 
L_mid_hand03 0.000000 0.000000 0.000000 0.000000 0.000000 0.000000 10.000000 
null_rope02_connect 0.000000 0.000000 0.000000 0.000000 0.000000 0.000000 10.000000 
Rope2_Seg01 0.000000 0.000000 0.000000 0.000000 0.000000 0.000000 10.000000 
Rope2_Seg02 0.000000 0.000000 0.000000 0.000000 0.000000 0.000000 10.000000 
Rope2_Seg03 0.000000 0.000000 0.000000 0.000000 0.000000 0.000000 10.000000 
Rope2_Seg04 0.000000 0.000000 0.000000 0.000000 0.000000 0.000000 10.000000 
Rope2_Seg05 0.000000 0.000000 0.000000 0.000000 0.000000 0.000000 10.000000 
Rope2_Seg06 0.000000 0.000000 0.000000 0.000000 0.000000 0.000000 10.000000 
Rope2_Seg07 0.000000 0.000000 0.000000 0.000000 0.000000 0.000000 10.000000 
Rope2_Seg09 0.000000 0.000000 0.000000 0.000000 0.000000 0.000000 10.000000 
R_mid_hand01 0.000000 0.000000 0.000000 0.000000 0.000000 0.000000 10.000000 
R_mid_hand02 0.000000 0.000000 0.000000 0.000000 0.000000 0.000000 10.000000 
R_mid_hand03 0.000000 0.000000 0.000000 0.000000 0.000000 0.000000 10.000000 
spine02 0.000000 0.000000 0.000000 0.000000 0.000000 0.000000 10.000000 
spine03 0.000000 0.000000 0.000000 0.000000 0.000000 0.000000 10.000000 
pelvis 0.000000 0.000000 0.000000 0.000000 0.000000 0.000000 10.000000 
null_rope03_connect 0.000000 0.000000 0.000000 0.000000 0.000000 0.000000 10.000000 
null_rope04_connect 0.000000 0.000000 0.000000 0.000000 0.000000 0.000000 10.000000 
Rope3_Seg01 0.000000 0.000000 0.000000 0.000000 0.000000 0.000000 10.000000 
Rope3_Seg02 0.000000 0.000000 0.000000 0.000000 0.000000 0.000000 10.000000 
Rope3_Seg03 0.000000 0.000000 0.000000 0.000000 0.000000 0.000000 10.000000 
Rope3_Seg04 0.000000 0.000000 0.000000 0.000000 0.000000 0.000000 10.000000 
Rope3_Seg05 0.000000 0.000000 0.000000 0.000000 0.000000 0.000000 10.000000 
Rope3_Seg06 0.000000 0.000000 0.000000 0.000000 0.000000 0.000000 10.000000 
Rope3_Seg07 0.000000 0.000000 0.000000 0.000000 0.000000 0.000000 10.000000 
Rope3_Seg08 0.000000 0.000000 0.000000 0.000000 0.000000 0.000000 10.000000 
Rope3_Seg09 0.000000 0.000000 0.000000 0.000000 0.000000 0.000000 10.000000 
R_rear_hand01 0.000000 0.000000 0.000000 0.000000 0.000000 0.000000 10.000000 
R_rear_hand02 0.000000 0.000000 0.000000 0.000000 0.000000 0.000000 10.000000 
R_rear_hand03 0.000000 0.000000 0.000000 0.000000 0.000000 0.000000 10.000000 
Rope4_Seg01 0.000000 0.000000 0.000000 0.000000 0.000000 0.000000 10.000000 
Rope4_Seg02 0.000000 0.000000 0.000000 0.000000 0.000000 0.000000 10.000000 
Rope4_Seg03 0.000000 0.000000 0.000000 0.000000 0.000000 0.000000 10.000000 
Rope4_Seg04 0.000000 0.000000 0.000000 0.000000 0.000000 0.000000 10.000000 
Rope4_Seg05 0.000000 0.000000 0.000000 0.000000 0.000000 0.000000 10.000000 
Rope4_Seg06 0.000000 0.000000 0.000000 0.000000 0.000000 0.000000 10.000000 
Rope4_Seg07 0.000000 0.000000 0.000000 0.000000 0.000000 0.000000 10.000000 
Rope4_Seg08 0.000000 0.000000 0.000000 0.000000 0.000000 0.000000 10.000000 
Rope4_Seg09 0.000000 0.000000 0.000000 0.000000 0.000000 0.000000 10.000000 
L_rear_hand01 0.000000 0.000000 0.000000 0.000000 0.000000 0.000000 10.000000 
L_rear_hand02 0.000000 0.000000 0.000000 0.000000 0.000000 0.000000 10.000000 
L_rear_hand03 0.000000 0.000000 0.000000 0.000000 0.000000 0.000000 10.000000 
#Beginning of Data. Separated by tabs
#Fr	Tx	Ty	Tz	Rx	Ry	Rz	SF
[MASTER]
24 0.000000 0.000000 0.000000 0.001660 0.001660 0.001660 0.000000
25 0.000000 0.000000 0.000000 0.001660 0.001660 0.001660 0.000000
[root]
24 -37.483910 19.785086 1425.743286 -91.728889 -11.584497 -89.471619 1426.373291
25 -37.078915 19.048565 1430.365234 -91.728897 -11.584496 -89.471619 1430.972534
[chest]
24 -84.512650 -34.090519 0.000000 -2.170494 -0.006436 168.239609 91.129311
25 -84.512650 -34.090519 0.000000 -2.170494 -0.006436 168.239609 91.129311
[L_mid_tent01]
24 27.299511 22.177458 -249.918259 -20.661392 12.026043 12.983022 252.381134
25 27.299511 22.177458 -249.918259 -20.661392 12.026043 12.983022 252.381134
[R_mid_tent01]
24 23.228794 24.509907 226.238495 -165.192200 -17.956036 24.056787 228.744751
25 23.228794 24.509907 226.238495 -165.192200 -17.956036 24.056787 228.744751
[spine01]
24 -0.361383 -0.195265 0.000000 -0.000001 -0.000007 22.052340 0.410763
25 -0.361383 -0.195265 0.000000 -0.000001 -0.000007 22.052340 0.410763
[Bip01_Neck]
24 165.484543 71.581718 0.000119 175.896118 1.177290 24.871183 180.302734
25 165.484543 71.581718 0.000119 175.896118 1.177290 24.871183 180.302734
[L_humerus]
24 -13.983130 -135.272980 -120.471481 -5.480129 68.873367 84.573456 181.680161
25 -13.983130 -135.272980 -120.471481 -5.480129 68.873367 84.573456 181.680161
[R_humerus]
24 -13.983309 -135.273102 125.287651 27.897165 -69.888802 67.752319 184.909012
25 -13.983309 -135.273102 125.287651 27.897165 -69.888802 67.752319 184.909012
[weapon_bone]
24 235.964890 -300.705902 0.000000 0.000000 -89.951546 -128.212341 382.234833
25 235.964890 -300.705902 0.000000 0.000000 -89.951546 -128.212341 382.234833
[Bip01_Head]
24 193.865707 99.525291 7.890739 1.727521 4.534425 -43.429157 218.062973
25 193.865707 99.525291 7.890739 1.727521 4.534425 -43.429157 218.062973
[eye_left_bone]
24 -24.626970 125.451866 -64.772606 0.000000 -90.000000 -99.840431 143.318359
25 -24.626970 125.451866 -64.772606 0.000000 -90.000000 -99.840431 143.318359
[eye_right_bone]
24 -24.626970 125.451866 64.327362 0.000000 -89.965736 80.156380 143.117676
25 -24.626970 125.451866 64.327362 0.000000 -89.965736 80.156380 143.117676
[L_forearm]
24 322.776093 0.000000 -0.000119 0.000396 -0.002314 -109.419975 322.776093
25 322.776093 0.000000 -0.000119 0.000396 -0.002314 -109.419975 322.776093
[L_front_hand]
24 241.149185 -0.042021 -3.300071 -179.659958 -2.242151 -0.019832 241.171753
25 241.149185 -0.042021 -3.300071 -179.659958 -2.242151 -0.019832 241.171753
[L_weapon_bone]
24 156.183838 0.000000 0.000000 0.000014 0.000007 0.000001 156.183838
25 156.183838 0.000000 0.000000 0.000014 0.000007 0.000001 156.183838
[L_front_hand01_01]
24 86.095154 20.947098 -0.655860 -0.366594 -0.477154 75.385574 88.609184
25 86.095154 20.947098 -0.655860 -0.366594 -0.477154 75.385574 88.609184
[L_front_hand02_01]
24 86.935165 -11.437475 24.513514 154.399796 -59.883835 -61.369587 91.046425
25 86.935165 -11.437475 24.513514 154.399796 -59.883835 -61.369587 91.046425
[L_front_hand03_01]
24 86.637497 -14.123976 -20.424902 -153.913849 58.118122 -62.702866 90.126129
25 86.637497 -14.123976 -20.424902 -153.913849 58.118122 -62.702866 90.126129
[L_front_hand01_02]
24 71.020905 -0.000179 0.000030 0.000334 -0.002323 -106.379684 71.020905
25 71.020905 -0.000179 0.000030 0.000334 -0.002323 -106.379684 71.020905
[L_front_hand02_02]
24 71.020927 -0.000119 0.000060 0.000334 -0.002323 -106.379684 71.020927
25 71.020927 -0.000119 0.000060 0.000334 -0.002323 -106.379684 71.020927
[L_front_hand03_02]
24 71.020905 -0.000060 0.000060 0.000334 -0.002323 -106.379684 71.020905
25 71.020905 -0.000060 0.000060 0.000334 -0.002323 -106.379684 71.020905
[R_forearm]
24 322.776428 -0.000060 0.000030 0.202103 0.065158 -108.062805 322.776428
25 322.776428 -0.000060 0.000030 0.202103 0.065158 -108.062805 322.776428
[R_front_hand]
24 238.847015 -0.006795 2.210259 -0.270529 1.703932 2.322531 238.857239
25 238.847015 -0.006795 2.210259 -0.270529 1.703932 2.322530 238.857239
[R_weapon_bone]
24 155.664093 0.002503 -0.000030 0.003487 0.001180 -90.988930 155.664078
25 155.664093 0.002503 -0.000030 0.003487 0.001180 -90.988930 155.664078
[R_front_hand01_01]
24 87.624611 14.231146 22.918642 -154.633499 -59.950619 61.746044 91.683487
25 87.624611 14.231146 22.918642 -154.633514 -59.950634 61.746063 91.683487
[R_front_hand02_01]
24 89.356956 14.367283 -19.491137 154.602661 58.302849 63.744389 92.579636
25 89.356956 14.367283 -19.491137 154.602661 58.302849 63.744389 92.579636
[R_front_hand03_01]
24 87.286232 -22.307278 -0.143439 0.162155 -0.423168 -75.767921 90.091743
25 87.286232 -22.307278 -0.143439 0.162155 -0.423168 -75.767921 90.091743
[R_front_hand01_02]
24 71.020905 0.000060 0.000119 0.002323 -0.000334 106.381714 71.020905
25 71.020905 0.000060 0.000119 0.002323 -0.000334 106.381714 71.020905
[R_front_hand02_02]
24 71.020844 -0.000030 -0.000119 0.002323 -0.000334 106.381714 71.020836
25 71.020844 -0.000030 -0.000119 0.002323 -0.000334 106.381714 71.020836
[R_front_hand03_02]
24 71.020905 0.000000 0.000030 0.002323 -0.000334 106.381714 71.020905
25 71.020905 0.000000 0.000030 0.002323 -0.000334 106.381714 71.020905
[null_rope01_connect]
24 328.732483 0.000000 -0.000238 -154.483337 -64.791298 -118.914307 328.732483
25 328.732483 0.000000 -0.000238 -154.483353 -64.791321 -118.914307 328.732483
[Rope1_Seg01]
24 -0.000038 -0.000114 0.000110 63.062637 3.588528 -126.017906 0.000163
25 -0.000038 -0.000114 0.000111 59.967613 3.719297 -124.700104 0.000164
[Rope1_Seg02]
24 139.999863 -0.000179 0.000000 -4.990166 2.237608 0.300248 139.999863
25 139.999863 -0.000179 0.000000 -4.399444 2.040983 0.131161 139.999863
[Rope1_Seg03]
24 139.999924 0.000060 -0.000060 -5.091737 2.232156 0.169781 139.999924
25 139.999924 0.000060 -0.000060 -4.659556 2.129553 -0.015683 139.999924
[Rope1_Seg04]
24 139.999924 -0.000060 -0.000119 -5.516753 2.540076 -0.244552 139.999924
25 139.999924 -0.000060 -0.000119 -6.001412 2.621171 -0.200160 139.999924
[Rope1_Seg05]
24 139.999832 0.000119 -0.000060 -15.009603 2.913469 4.704253 139.999832
25 139.999832 0.000119 -0.000060 -9.898989 1.463976 3.350622 139.999832
[Rope1_Seg06]
24 139.999954 0.000119 -0.000060 -6.345490 0.489591 3.259017 139.999954
25 139.999954 0.000119 -0.000060 -3.960171 0.060035 2.117713 139.999954
[Rope1_Seg07]
24 139.999985 0.000060 0.000000 -2.770357 0.230892 1.500047 139.999985
25 139.999985 0.000060 0.000000 -1.985456 0.142280 0.978595 139.999985
[Rope1_Seg09]
24 121.602913 0.000119 -0.000089 -89.793175 -1.359789 0.847147 121.602913
25 121.602913 0.000119 -0.000089 -89.793175 -1.359789 0.847147 121.602913
[L_mid_hand01]
24 103.859421 1.038730 8.195221 106.855484 -31.239275 -9.461397 104.187431
25 103.859421 1.038730 8.195221 106.855484 -31.239275 -9.461397 104.187431
[L_mid_hand02]
24 105.572853 -4.139662 -10.864139 -142.331345 25.752670 -28.774628 106.211075
25 105.572853 -4.139662 -10.864139 -142.331345 25.752670 -28.774628 106.211075
[L_mid_hand03]
24 104.641464 17.579376 -3.913581 -16.122810 9.734291 34.223598 106.179977
25 104.641464 17.579376 -3.913581 -16.122810 9.734291 34.223598 106.179977
[null_rope02_connect]
24 328.732849 0.000179 -0.000119 -140.208786 68.099197 -35.150627 328.732849
25 328.732849 0.000179 -0.000119 -140.208786 68.099213 -35.150635 328.732849
[Rope2_Seg01]
24 0.000095 0.000153 0.000058 47.514744 9.063339 -47.009968 0.000189
25 0.000095 0.000153 0.000061 56.191818 8.746534 -49.239372 0.000190
[Rope2_Seg02]
24 139.999741 -0.000060 -0.000119 15.848810 -3.435291 -2.474970 139.999756
25 139.999741 -0.000060 -0.000119 12.093320 -2.607731 -2.040676 139.999756
[Rope2_Seg03]
24 140.000107 0.000030 0.000000 -6.277374 2.765361 0.082851 140.000107
25 140.000107 0.000030 0.000000 -4.533917 3.354763 -0.581788 140.000107
[Rope2_Seg04]
24 139.999802 0.000000 -0.000060 10.979606 -3.452228 -1.344260 139.999802
25 139.999802 0.000000 -0.000060 10.413843 -3.918000 -1.031309 139.999802
[Rope2_Seg05]
24 139.999985 -0.000060 0.000119 15.578804 -14.438576 -1.696983 139.999985
25 139.999985 -0.000060 0.000119 10.428036 -12.689505 0.343019 139.999985
[Rope2_Seg06]
24 139.999893 -0.000030 -0.000119 3.696182 -10.598476 1.681400 139.999893
25 139.999893 -0.000030 -0.000119 2.499052 -8.157489 1.767617 139.999893
[Rope2_Seg07]
24 139.999893 0.000060 -0.000060 1.030789 -4.817002 1.072131 139.999893
25 139.999893 0.000060 -0.000060 0.800740 -3.814218 0.969671 139.999893
[Rope2_Seg09]
24 121.338966 0.000089 -0.000060 33.793236 -1.359788 -0.847141 121.338966
25 121.338966 0.000089 -0.000060 33.793236 -1.359788 -0.847141 121.338966
[R_mid_hand01]
24 104.680779 11.144459 -10.335981 -41.523792 25.424656 28.595957 105.778534
25 104.680779 11.144459 -10.335981 -41.523792 25.424656 28.595957 105.778534
[R_mid_hand02]
24 104.070427 2.443552 8.231699 72.847389 -32.746803 10.013901 104.424065
25 104.070427 2.443552 8.231699 72.847389 -32.746803 10.013901 104.424065
[R_mid_hand03]
24 106.028137 -11.221827 -5.996406 -167.901306 10.259192 -37.009720 106.788818
25 106.028137 -11.221827 -5.996406 -167.901306 10.259192 -37.009720 106.788818
[spine02]
24 129.756927 0.001550 0.000119 0.360061 -4.044797 -12.915058 129.756927
25 129.756927 0.001550 0.000119 0.360061 -4.044797 -12.915058 129.756927
[spine03]
24 78.613846 0.087372 -4.898873 1.896495 3.831288 16.473045 78.766380
25 78.613846 0.087372 -4.898873 1.896495 3.831288 16.473045 78.766380
[pelvis]
24 169.435242 0.051022 0.000000 -0.060465 -0.180225 14.087930 169.435257
25 169.435242 0.051022 0.000000 -0.060465 -0.180225 14.087930 169.435257
[null_rope03_connect]
24 -1.257226 -2.466202 137.391083 156.329987 -89.381348 -94.430771 137.418976
25 -1.257226 -2.466202 137.391083 156.329987 -89.381348 -94.430771 137.418976
[null_rope04_connect]
24 -1.259640 -2.480268 -137.844437 156.329987 -89.381348 -94.430771 137.872513
25 -1.259640 -2.480268 -137.844437 156.329987 -89.381348 -94.430771 137.872513
[Rope3_Seg01]
24 0.000010 0.000038 -0.000114 -139.112930 22.694639 -99.318115 0.000121
25 0.000010 0.000038 -0.000114 -137.628006 21.570126 -96.200417 0.000121
[Rope3_Seg02]
24 139.999924 -0.000119 0.000060 -1.112168 -7.873277 -4.866061 139.999924
25 139.999924 -0.000119 0.000060 -1.205205 -6.996036 -3.041846 139.999924
[Rope3_Seg03]
24 139.999924 -0.000119 0.000119 -0.476721 -7.039742 -4.474324 139.999924
25 139.999924 -0.000119 0.000119 -0.663061 -5.952167 -2.554200 139.999924
[Rope3_Seg04]
24 139.999924 0.000119 0.000000 -0.142644 -7.069872 -4.083304 139.999924
25 139.999924 0.000119 0.000000 -0.468662 -5.359066 -1.694498 139.999924
[Rope3_Seg05]
24 139.999924 -0.000238 0.000060 0.217279 -3.233733 -2.904112 139.999924
25 139.999924 -0.000238 0.000060 0.122917 -3.483613 -2.847456 139.999924
[Rope3_Seg06]
24 139.999893 -0.000119 -0.000060 0.372082 0.036847 -1.699621 139.999893
25 139.999893 -0.000119 -0.000060 0.463825 -1.672657 -3.185967 139.999893
[Rope3_Seg07]
24 139.999771 0.000060 -0.000119 0.469510 -0.245011 -1.364403 139.999771
25 139.999771 0.000060 -0.000119 0.532721 -1.413028 -2.146706 139.999771
[Rope3_Seg08]
24 139.999985 -0.000060 0.000000 0.530515 -0.527900 -0.994906 139.999985
25 139.999985 -0.000060 0.000000 0.557759 -1.055415 -1.304291 139.999985
[Rope3_Seg09]
24 90.185997 -0.000179 -0.000060 89.793228 -1.359877 -0.847183 90.185997
25 90.185997 -0.000179 -0.000060 89.793228 -1.359877 -0.847183 90.185997
[R_rear_hand01]
24 103.366196 -6.073594 -10.757982 -161.551193 16.666374 -30.088671 104.101845
25 103.366196 -6.073594 -10.757982 -161.551193 16.666374 -30.088671 104.101845
[R_rear_hand02]
24 100.509819 12.039542 -7.992327 -34.280552 19.289745 28.875523 101.543350
25 100.509819 12.039542 -7.992327 -34.280552 19.289745 28.875523 101.543350
[R_rear_hand03]
24 101.539970 5.215704 5.435467 83.366440 -30.933914 7.284830 101.819031
25 101.539970 5.215704 5.435467 83.366440 -30.933914 7.284830 101.819031
[Rope4_Seg01]
24 0.000010 0.000038 -0.000114 40.843933 27.154860 -118.673950 0.000121
25 0.000010 0.000038 -0.000114 42.798168 28.249529 -114.528732 0.000121
[Rope4_Seg02]
24 139.999985 0.000060 0.000119 0.343579 1.959166 4.074350 139.999985
25 139.999985 0.000060 0.000119 0.144067 0.670511 3.197882 139.999985
[Rope4_Seg03]
24 139.999924 0.000000 -0.000238 0.230216 2.832723 5.832712 139.999924
25 139.999924 0.000000 -0.000238 0.052079 0.930132 4.380215 139.999924
[Rope4_Seg04]
24 139.999985 0.000000 0.000119 -0.937523 4.638617 15.569425 139.999985
25 139.999985 0.000000 0.000119 -0.731325 -0.451084 10.762635 139.999985
[Rope4_Seg05]
24 139.999802 -0.000060 -0.000119 -0.146645 6.546923 5.206437 139.999802
25 139.999802 -0.000060 -0.000119 -0.014413 4.853808 4.293805 139.999802
[Rope4_Seg06]
24 139.999924 0.000000 0.000060 4.451059 2.834227 -13.445676 139.999924
25 139.999924 0.000000 0.000060 2.281415 7.006249 -8.524873 139.999924
[Rope4_Seg07]
24 139.999802 0.000000 0.000000 1.344002 1.461461 -3.785690 139.999802
25 139.999802 0.000000 0.000000 1.067733 2.943271 -2.420116 139.999802
[Rope4_Seg08]
24 139.999924 0.000000 0.000119 -0.784830 0.813466 -2.086256 139.999924
25 139.999924 0.000000 0.000119 -0.864151 1.678102 -1.361376 139.999924
[Rope4_Seg09]
24 90.185791 0.000060 0.000060 -135.617828 2.228885 0.850567 90.185791
25 90.185791 0.000060 0.000060 -135.617828 2.228885 0.850567 90.185791
[L_rear_hand01]
24 101.696655 -8.392275 -7.654577 -34.454281 -18.946800 151.655121 102.329041
25 101.696655 -8.392275 -7.654577 -34.454281 -18.946800 151.655121 102.329041
[L_rear_hand02]
24 102.726799 -1.568258 5.773216 83.407906 30.330435 172.796509 102.900848
25 102.726799 -1.568258 5.773216 83.407906 30.330435 172.796509 102.900848
[L_rear_hand03]
24 104.552910 9.721220 -10.420293 -161.379868 -16.473232 -150.512238 105.519653
25 104.552910 9.721220 -10.420293 -161.379868 -16.473232 -150.512238 105.519653
